<svg width="20" height="20" viewBox="0 0 20 20" fill="none" xmlns="http://www.w3.org/2000/svg">
<path d="M16.6667 5.54078C14.2 5.29634 11.7185 5.17041 9.24445 5.17041C7.77779 5.17041 6.31112 5.24448 4.84445 5.39263L3.33334 5.54078" stroke="#D9544F" stroke-width="1.5" stroke-linecap="round" stroke-linejoin="round"/>
<path d="M7.40741 4.79277L7.57037 3.8224C7.68889 3.1187 7.77778 2.59277 9.02963 2.59277H10.9704C12.2222 2.59277 12.3185 3.14833 12.4296 3.82981L12.5926 4.79277" stroke="#D9544F" stroke-width="1.5" stroke-linecap="round" stroke-linejoin="round"/>
<path d="M15.074 7.88135L14.5925 15.3406C14.511 16.5036 14.4444 17.4073 12.3777 17.4073H7.62214C5.55547 17.4073 5.48881 16.5036 5.40732 15.3406L4.92584 7.88135" stroke="#D9544F" stroke-width="1.5" stroke-linecap="round" stroke-linejoin="round"/>
<path d="M8.76303 13.3335H11.2297" stroke="#D9544F" stroke-width="1.5" stroke-linecap="round" stroke-linejoin="round"/>
<path d="M8.14813 10.3706H11.8518" stroke="#D9544F" stroke-width="1.5" stroke-linecap="round" stroke-linejoin="round"/>
</svg>
